<svg width="64" height="64" viewBox="0 0 64 64" fill="none" xmlns="http://www.w3.org/2000/svg">
<g style="mix-blend-mode:multiply">
<path d="M36.2104 39.3684C42.6053 39.3684 47.7893 34.1844 47.7893 27.7895C47.7893 21.3945 42.6053 16.2105 36.2104 16.2105C29.8154 16.2105 24.6314 21.3945 24.6314 27.7895C24.6314 34.1844 29.8154 39.3684 36.2104 39.3684ZM36.2104 43.579C27.4904 43.579 20.4209 36.5095 20.4209 27.7895C20.4209 19.0695 27.4904 12 36.2104 12C44.9304 12 51.9999 19.0695 51.9999 27.7895C51.9999 36.5095 44.9304 43.579 36.2104 43.579Z" fill="#35D07F"/>
</g>
<g style="mix-blend-mode:multiply">
<path d="M27.7895 47.7896C34.1844 47.7896 39.3684 42.6056 39.3684 36.2106C39.3684 29.8157 34.1844 24.6317 27.7895 24.6317C21.3945 24.6317 16.2105 29.8157 16.2105 36.2106C16.2105 42.6056 21.3945 47.7896 27.7895 47.7896ZM27.7895 52.0001C19.0695 52.0001 12 44.9306 12 36.2106C12 27.4906 19.0695 20.4211 27.7895 20.4211C36.5095 20.4211 43.579 27.4906 43.579 36.2106C43.579 44.9306 36.5095 52.0001 27.7895 52.0001Z" fill="#FBCC5C"/>
</g>
</svg>
